<?xml version="1.0" encoding="UTF-8" standalone="no"?>
<svg
   viewBox="0 0 640 512"
   version="1.1"
   id="svg4"
   sodipodi:docname="panorama-solid.svg"
   xmlns:inkscape="http://www.inkscape.org/namespaces/inkscape"
   xmlns:sodipodi="http://sodipodi.sourceforge.net/DTD/sodipodi-0.dtd"
   xmlns:xlink="http://www.w3.org/1999/xlink"
   xmlns="http://www.w3.org/2000/svg"
   xmlns:svg="http://www.w3.org/2000/svg">
  <defs
     id="defs8">
    <linearGradient
       inkscape:collect="always"
       id="linearGradient909">
      <stop
         style="stop-color:#50c3ea;stop-opacity:1;"
         offset="0"
         id="stop905" />
      <stop
         style="stop-color:#287e97;stop-opacity:1;"
         offset="1"
         id="stop907" />
    </linearGradient>
    <linearGradient
       inkscape:collect="always"
       xlink:href="#linearGradient909"
       id="linearGradient911"
       x1="245.02286"
       y1="39.641804"
       x2="322.37701"
       y2="473.23859"
       gradientUnits="userSpaceOnUse" />
  </defs>
  <sodipodi:namedview
     id="namedview6"
     pagecolor="#505050"
     bordercolor="#eeeeee"
     borderopacity="1"
     inkscape:showpageshadow="0"
     inkscape:pageopacity="0"
     inkscape:pagecheckerboard="0"
     inkscape:deskcolor="#505050"
     showgrid="false"
     inkscape:zoom="1.635209"
     inkscape:cx="171.23193"
     inkscape:cy="299.96166"
     inkscape:window-width="2560"
     inkscape:window-height="1378"
     inkscape:window-x="2048"
     inkscape:window-y="25"
     inkscape:window-maximized="1"
     inkscape:current-layer="svg4" />
  <!--! Font Awesome Pro 6.2.0 by @fontawesome - https://fontawesome.com License - https://fontawesome.com/license (Commercial License) Copyright 2022 Fonticons, Inc. -->
  <path
     d="M45.6 32C20.4 32 0 52.4 0 77.6V434.4C0 459.6 20.4 480 45.6 480c5.1 0 10-.8 14.7-2.4C74.6 472.8 177.6 440 320 440s245.4 32.8 259.6 37.6c4.7 1.6 9.7 2.4 14.7 2.4c25.2 0 45.6-20.4 45.6-45.6V77.6C640 52.4 619.6 32 594.4 32c-5 0-10 .8-14.7 2.4C565.4 39.2 462.4 72 320 72S74.6 39.2 60.4 34.4C55.6 32.8 50.7 32 45.6 32zM160 160c0 17.7-14.3 32-32 32s-32-14.3-32-32s14.3-32 32-32s32 14.3 32 32zm208 0c7.9 0 15.4 3.9 19.8 10.5L512.3 353c5.4 8 5.6 18.4 .4 26.5s-14.7 12.3-24.2 10.7C442.7 382.4 385.2 376 320 376c-65.6 0-123.4 6.5-169.3 14.4c-9.8 1.7-19.7-2.9-24.7-11.5s-4.3-19.4 1.9-27.2L197.3 265c4.6-5.7 11.4-9 18.7-9s14.2 3.3 18.7 9l26.4 33.1 87-127.6c4.5-6.6 11.9-10.5 19.8-10.5z"
     id="path2"
     style="fill:url(#linearGradient911);fill-opacity:1" />
</svg>
