<?xml version="1.0" encoding="UTF-8" standalone="no"?>
<svg
   width="100mm"
   height="100mm"
   viewBox="0 0 99.999996 100"
   version="1.1"
   id="svg8"
   sodipodi:docname="spinner.svg"
   inkscape:version="1.2.2 (b0a8486541, 2022-12-01)"
   xmlns:inkscape="http://www.inkscape.org/namespaces/inkscape"
   xmlns:sodipodi="http://sodipodi.sourceforge.net/DTD/sodipodi-0.dtd"
   xmlns="http://www.w3.org/2000/svg"
   xmlns:svg="http://www.w3.org/2000/svg"
   xmlns:rdf="http://www.w3.org/1999/02/22-rdf-syntax-ns#"
   xmlns:cc="http://creativecommons.org/ns#"
   xmlns:dc="http://purl.org/dc/elements/1.1/">
  <defs
     id="defs2" />
  <sodipodi:namedview
     id="base"
     pagecolor="#ffffff"
     bordercolor="#666666"
     borderopacity="1.0"
     inkscape:pageopacity="0.0"
     inkscape:pageshadow="2"
     inkscape:zoom="2.1317651"
     inkscape:cx="109.53364"
     inkscape:cy="153.15946"
     inkscape:document-units="mm"
     inkscape:current-layer="g1260"
     inkscape:document-rotation="0"
     showgrid="false"
     inkscape:window-width="2560"
     inkscape:window-height="1378"
     inkscape:window-x="2048"
     inkscape:window-y="25"
     inkscape:window-maximized="1"
     units="mm"
     inkscape:showpageshadow="0"
     inkscape:pagecheckerboard="true"
     inkscape:deskcolor="#d1d1d1" />
  <metadata
     id="metadata5">
    <rdf:RDF>
      <cc:Work
         rdf:about="">
        <dc:format>image/svg+xml</dc:format>
        <dc:type
           rdf:resource="http://purl.org/dc/dcmitype/StillImage" />
      </cc:Work>
    </rdf:RDF>
  </metadata>
  <g
     inkscape:label="Layer 1"
     inkscape:groupmode="layer"
     id="layer1">
    <g
       id="g1260"
       style="fill:#46485b;fill-opacity:1">
      <path
         id="path1189"
         style="color:#000000;font-style:normal;font-variant:normal;font-weight:normal;font-stretch:normal;font-size:medium;line-height:normal;font-family:sans-serif;font-variant-ligatures:normal;font-variant-position:normal;font-variant-caps:normal;font-variant-numeric:normal;font-variant-alternates:normal;font-variant-east-asian:normal;font-feature-settings:normal;font-variation-settings:normal;text-indent:0;text-align:start;text-decoration:none;text-decoration-line:none;text-decoration-style:solid;text-decoration-color:#000000;letter-spacing:normal;word-spacing:normal;text-transform:none;writing-mode:lr-tb;direction:ltr;text-orientation:mixed;dominant-baseline:auto;baseline-shift:baseline;text-anchor:start;white-space:normal;shape-padding:0;shape-margin:0;inline-size:0;clip-rule:nonzero;display:inline;overflow:visible;visibility:visible;isolation:auto;mix-blend-mode:normal;color-interpolation:sRGB;color-interpolation-filters:linearRGB;solid-color:#000000;solid-opacity:1;vector-effect:none;fill:#e6e6e6;fill-opacity:1;fill-rule:nonzero;stroke:none;stroke-width:2;stroke-linecap:butt;stroke-linejoin:round;stroke-miterlimit:4;stroke-dasharray:none;stroke-dashoffset:0;stroke-opacity:1;paint-order:markers stroke fill;color-rendering:auto;image-rendering:auto;shape-rendering:auto;text-rendering:auto;enable-background:accumulate;stop-color:#000000"
         d="m 42.003638,1.7905883 a 1.0001,1.0001 0 0 0 -0.151929,0.013953 l -0.09974,0.01602 -0.05684,0.0093 a 1.0001,1.0001 0 0 0 -0.0078,0 C 29.759915,3.858089 18.576361,10.548775 11.224638,20.254061 c -0.0014,0.0019 -0.0027,0.0038 -0.0041,0.0057 -5.55e-4,7.41e-4 -9.52e-4,0.0013 -0.0016,0.0021 -1.3618052,1.764853 -2.6030447,3.641046 -3.711389,5.587777 a 1.0001,1.0001 0 0 0 1.3637411,1.363223 C 24.628843,18.261655 43.386671,14.659396 61.33579,17.172078 a 1.0001,1.0001 0 0 0 0.820623,-1.720825 C 56.326081,10.011131 49.635679,5.4177757 42.453221,1.8923909 a 1.0001,1.0001 0 0 0 -0.406175,-0.1012858 1.0001,1.0001 0 0 0 -0.04341,-5.159e-4 z" />
      <path
         id="path1204"
         style="color:#000000;font-style:normal;font-variant:normal;font-weight:normal;font-stretch:normal;font-size:medium;line-height:normal;font-family:sans-serif;font-variant-ligatures:normal;font-variant-position:normal;font-variant-caps:normal;font-variant-numeric:normal;font-variant-alternates:normal;font-variant-east-asian:normal;font-feature-settings:normal;font-variation-settings:normal;text-indent:0;text-align:start;text-decoration:none;text-decoration-line:none;text-decoration-style:solid;text-decoration-color:#000000;letter-spacing:normal;word-spacing:normal;text-transform:none;writing-mode:lr-tb;direction:ltr;text-orientation:mixed;dominant-baseline:auto;baseline-shift:baseline;text-anchor:start;white-space:normal;shape-padding:0;shape-margin:0;inline-size:0;clip-rule:nonzero;display:inline;overflow:visible;visibility:visible;isolation:auto;mix-blend-mode:normal;color-interpolation:sRGB;color-interpolation-filters:linearRGB;solid-color:#000000;solid-opacity:1;vector-effect:none;fill:#e6e6e6;fill-opacity:1;fill-rule:nonzero;stroke:none;stroke-width:2;stroke-linecap:butt;stroke-linejoin:round;stroke-miterlimit:4;stroke-dasharray:none;stroke-dashoffset:0;stroke-opacity:1;paint-order:markers stroke fill;color-rendering:auto;image-rendering:auto;shape-rendering:auto;text-rendering:auto;enable-background:accumulate;stop-color:#000000"
         d="m 87.752395,18.970243 a 1.0001,1.0001 0 0 0 -0.08805,-0.124598 l -0.06374,-0.07837 -0.03648,-0.04458 a 1.0001,1.0001 0 0 0 -0.0039,-0.0067 C 79.840025,9.4006175 68.453944,3.0607181 56.373058,1.5465822 c -0.0024,-2.619e-4 -0.0046,-4.752e-4 -0.007,-7.397e-4 -9.19e-4,-1.108e-4 -0.0016,-1.899e-4 -0.0026,-3.201e-4 C 54.15419,1.2485912 51.908739,1.1117425 49.668649,1.1252537 A 1.0001,1.0001 0 0 0 49.169933,2.9878999 C 64.800635,12.158762 77.299196,26.602388 84.09771,43.403123 a 1.0001,1.0001 0 0 0 1.90059,-0.149732 c 1.796118,-7.769277 2.428879,-15.860013 1.890723,-23.842897 a 1.0001,1.0001 0 0 0 -0.115372,-0.402401 1.0001,1.0001 0 0 0 -0.02126,-0.03785 z" />
      <path
         id="path1210"
         style="color:#000000;font-style:normal;font-variant:normal;font-weight:normal;font-stretch:normal;font-size:medium;line-height:normal;font-family:sans-serif;font-variant-ligatures:normal;font-variant-position:normal;font-variant-caps:normal;font-variant-numeric:normal;font-variant-alternates:normal;font-variant-east-asian:normal;font-feature-settings:normal;font-variation-settings:normal;text-indent:0;text-align:start;text-decoration:none;text-decoration-line:none;text-decoration-style:solid;text-decoration-color:#000000;letter-spacing:normal;word-spacing:normal;text-transform:none;writing-mode:lr-tb;direction:ltr;text-orientation:mixed;dominant-baseline:auto;baseline-shift:baseline;text-anchor:start;white-space:normal;shape-padding:0;shape-margin:0;inline-size:0;clip-rule:nonzero;display:inline;overflow:visible;visibility:visible;isolation:auto;mix-blend-mode:normal;color-interpolation:sRGB;color-interpolation-filters:linearRGB;solid-color:#000000;solid-opacity:1;vector-effect:none;fill:#e6e6e6;fill-opacity:1;fill-rule:nonzero;stroke:none;stroke-width:2;stroke-linecap:butt;stroke-linejoin:round;stroke-miterlimit:4;stroke-dasharray:none;stroke-dashoffset:0;stroke-opacity:1;paint-order:markers stroke fill;color-rendering:auto;image-rendering:auto;shape-rendering:auto;text-rendering:auto;enable-background:accumulate;stop-color:#000000"
         d="m 95.748757,67.179654 a 1.0001,1.0001 0 0 0 0.06388,-0.13855 l 0.03599,-0.09439 0.02037,-0.05388 a 1.0001,1.0001 0 0 0 0.0039,-0.0067 c 4.207233,-11.343599 4.004708,-24.374184 -0.724455,-35.593605 -9.49e-4,-0.0022 -0.0019,-0.0043 -0.0029,-0.0064 -3.64e-4,-8.52e-4 -6.24e-4,-0.0015 -0.001,-0.0024 -0.847505,-2.061785 -1.851716,-4.074826 -2.983462,-6.008046 a 1.0001,1.0001 0 0 0 -1.862457,0.499423 c -0.126848,18.122015 -6.386114,36.1679 -17.53672,50.455952 a 1.0001,1.0001 0 0 0 1.079966,1.571094 C 81.468336,75.472983 88.7915,71.975602 95.435802,67.518103 a 1.0001,1.0001 0 0 0 0.290803,-0.301115 1.0001,1.0001 0 0 0 0.02215,-0.03733 z" />
      <path
         id="path1216"
         style="color:#000000;font-style:normal;font-variant:normal;font-weight:normal;font-stretch:normal;font-size:medium;line-height:normal;font-family:sans-serif;font-variant-ligatures:normal;font-variant-position:normal;font-variant-caps:normal;font-variant-numeric:normal;font-variant-alternates:normal;font-variant-east-asian:normal;font-feature-settings:normal;font-variation-settings:normal;text-indent:0;text-align:start;text-decoration:none;text-decoration-line:none;text-decoration-style:solid;text-decoration-color:#000000;letter-spacing:normal;word-spacing:normal;text-transform:none;writing-mode:lr-tb;direction:ltr;text-orientation:mixed;dominant-baseline:auto;baseline-shift:baseline;text-anchor:start;white-space:normal;shape-padding:0;shape-margin:0;inline-size:0;clip-rule:nonzero;display:inline;overflow:visible;visibility:visible;isolation:auto;mix-blend-mode:normal;color-interpolation:sRGB;color-interpolation-filters:linearRGB;solid-color:#000000;solid-opacity:1;vector-effect:none;fill:#e6e6e6;fill-opacity:1;fill-rule:nonzero;stroke:none;stroke-width:2;stroke-linecap:butt;stroke-linejoin:round;stroke-miterlimit:4;stroke-dasharray:none;stroke-dashoffset:0;stroke-opacity:1;paint-order:markers stroke fill;color-rendering:auto;image-rendering:auto;shape-rendering:auto;text-rendering:auto;enable-background:accumulate;stop-color:#000000"
         d="m 57.996362,98.209412 a 1.0001,1.0001 0 0 0 0.151929,-0.01395 l 0.09974,-0.01602 0.05684,-0.0093 a 1.0001,1.0001 0 0 0 0.0078,0 c 11.927461,-2.028227 23.111015,-8.718913 30.462738,-18.424199 0.0014,-0.0019 0.0027,-0.0038 0.0041,-0.0057 5.55e-4,-7.41e-4 9.52e-4,-0.0013 0.0016,-0.0021 1.361805,-1.764853 2.603045,-3.641046 3.711389,-5.587777 A 1.0001,1.0001 0 0 0 91.128707,72.787192 C 75.371157,81.738345 56.613329,85.340604 38.66421,82.827922 a 1.0001,1.0001 0 0 0 -0.820623,1.720825 c 5.830332,5.440122 12.520734,10.033477 19.703192,13.558862 a 1.0001,1.0001 0 0 0 0.406175,0.101286 1.0001,1.0001 0 0 0 0.04341,5.16e-4 z" />
      <path
         id="path1222"
         style="color:#000000;font-style:normal;font-variant:normal;font-weight:normal;font-stretch:normal;font-size:medium;line-height:normal;font-family:sans-serif;font-variant-ligatures:normal;font-variant-position:normal;font-variant-caps:normal;font-variant-numeric:normal;font-variant-alternates:normal;font-variant-east-asian:normal;font-feature-settings:normal;font-variation-settings:normal;text-indent:0;text-align:start;text-decoration:none;text-decoration-line:none;text-decoration-style:solid;text-decoration-color:#000000;letter-spacing:normal;word-spacing:normal;text-transform:none;writing-mode:lr-tb;direction:ltr;text-orientation:mixed;dominant-baseline:auto;baseline-shift:baseline;text-anchor:start;white-space:normal;shape-padding:0;shape-margin:0;inline-size:0;clip-rule:nonzero;display:inline;overflow:visible;visibility:visible;isolation:auto;mix-blend-mode:normal;color-interpolation:sRGB;color-interpolation-filters:linearRGB;solid-color:#000000;solid-opacity:1;vector-effect:none;fill:#e6e6e6;fill-opacity:1;fill-rule:nonzero;stroke:none;stroke-width:2;stroke-linecap:butt;stroke-linejoin:round;stroke-miterlimit:4;stroke-dasharray:none;stroke-dashoffset:0;stroke-opacity:1;paint-order:markers stroke fill;color-rendering:auto;image-rendering:auto;shape-rendering:auto;text-rendering:auto;enable-background:accumulate;stop-color:#000000"
         d="m 12.247607,81.029757 a 1.0001,1.0001 0 0 0 0.08805,0.124599 l 0.06374,0.07836 0.03648,0.04458 a 1.0001,1.0001 0 0 0 0.0039,0.0067 c 7.720226,9.315372 19.106307,15.655271 31.187193,17.169408 0.0024,2.61e-4 0.0046,4.75e-4 0.007,7.39e-4 9.2e-4,1.11e-4 0.0016,1.9e-4 0.0026,3.2e-4 2.209311,0.296932 4.454761,0.43378 6.694852,0.420269 a 1.0001,1.0001 0 0 0 0.498715,-1.862646 C 35.199366,87.841239 22.700805,73.397612 15.902293,56.596878 a 1.0001,1.0001 0 0 0 -1.90059,0.149732 c -1.796119,7.769276 -2.42888,15.860012 -1.890724,23.842896 a 1.0001,1.0001 0 0 0 0.115372,0.402401 1.0001,1.0001 0 0 0 0.02126,0.03785 z" />
      <path
         id="path1228"
         style="color:#000000;font-style:normal;font-variant:normal;font-weight:normal;font-stretch:normal;font-size:medium;line-height:normal;font-family:sans-serif;font-variant-ligatures:normal;font-variant-position:normal;font-variant-caps:normal;font-variant-numeric:normal;font-variant-alternates:normal;font-variant-east-asian:normal;font-feature-settings:normal;font-variation-settings:normal;text-indent:0;text-align:start;text-decoration:none;text-decoration-line:none;text-decoration-style:solid;text-decoration-color:#000000;letter-spacing:normal;word-spacing:normal;text-transform:none;writing-mode:lr-tb;direction:ltr;text-orientation:mixed;dominant-baseline:auto;baseline-shift:baseline;text-anchor:start;white-space:normal;shape-padding:0;shape-margin:0;inline-size:0;clip-rule:nonzero;display:inline;overflow:visible;visibility:visible;isolation:auto;mix-blend-mode:normal;color-interpolation:sRGB;color-interpolation-filters:linearRGB;solid-color:#000000;solid-opacity:1;vector-effect:none;fill:#e6e6e6;fill-opacity:1;fill-rule:nonzero;stroke:none;stroke-width:2;stroke-linecap:butt;stroke-linejoin:round;stroke-miterlimit:4;stroke-dasharray:none;stroke-dashoffset:0;stroke-opacity:1;paint-order:markers stroke fill;color-rendering:auto;image-rendering:auto;shape-rendering:auto;text-rendering:auto;enable-background:accumulate;stop-color:#000000"
         d="m 4.2512449,32.820346 a 1.0001,1.0001 0 0 0 -0.063881,0.13855 l -0.035995,0.09438 -0.020366,0.05388 a 1.0001,1.0001 0 0 0 -0.00388,0.0067 C -0.0801122,44.457455 0.1224143,57.48804 4.851577,68.707462 c 9.486e-4,0.0022 0.00191,0.0043 0.00285,0.0064 3.638e-4,8.52e-4 6.236e-4,0.0015 0.00101,0.0024 0.8475054,2.061785 1.851716,4.074826 2.9834624,6.008046 a 1.0001,1.0001 0 0 0 1.862461,-0.499399 C 9.8282094,56.102894 16.087476,38.057009 27.238082,23.768956 a 1.0001,1.0001 0 0 0 -1.079966,-1.571093 c -7.62645,2.329154 -14.949614,5.826535 -21.5939161,10.284034 a 1.0001,1.0001 0 0 0 -0.2908037,0.301115 1.0001,1.0001 0 0 0 -0.022151,0.03733 z" />
    </g>
  </g>
</svg>
